<svg width="800" height="1080" viewBox="0 0 800 1080" fill="none" xmlns="http://www.w3.org/2000/svg">
<rect width="800" height="1080" rx="20" fill="#1E1E1E"/>
<rect width="800" height="1080" rx="20" fill="white"/>
<line x1="100" y1="781" x2="700" y2="781" stroke="#E0E0E0" stroke-width="4"/>
<path d="M110.71 693V665.742H102.31V662.298H122.89V665.742H114.49V693H110.71ZM135.768 693.42C133.332 693.42 131.414 692.804 130.014 691.572C128.614 690.312 127.914 688.618 127.914 686.49C127.914 684.334 128.614 682.64 130.014 681.408C131.414 680.176 133.304 679.56 135.684 679.56H142.824V677.25C142.824 675.822 142.39 674.73 141.522 673.974C140.682 673.19 139.478 672.798 137.91 672.798C136.538 672.798 135.39 673.092 134.466 673.68C133.542 674.24 133.01 675.01 132.87 675.99H129.09C129.342 674.002 130.28 672.42 131.904 671.244C133.528 670.068 135.558 669.48 137.994 669.48C140.654 669.48 142.754 670.166 144.294 671.538C145.834 672.91 146.604 674.772 146.604 677.124V693H142.908V688.59H142.278L142.908 687.96C142.908 689.64 142.25 690.97 140.934 691.95C139.646 692.93 137.924 693.42 135.768 693.42ZM136.692 690.438C138.484 690.438 139.954 689.99 141.102 689.094C142.25 688.198 142.824 687.05 142.824 685.65V682.374H135.768C134.508 682.374 133.514 682.724 132.786 683.424C132.058 684.124 131.694 685.076 131.694 686.28C131.694 687.568 132.128 688.59 132.996 689.346C133.892 690.074 135.124 690.438 136.692 690.438ZM157.129 700.56V697.116H164.479C165.655 697.116 166.509 696.85 167.041 696.318C167.601 695.786 167.881 694.96 167.881 693.84V690.9L167.965 686.7H167.209L167.923 686.07C167.923 687.75 167.363 689.08 166.243 690.06C165.123 691.04 163.625 691.53 161.749 691.53C159.369 691.53 157.493 690.76 156.121 689.22C154.749 687.652 154.063 685.552 154.063 682.92V678.048C154.063 675.416 154.749 673.33 156.121 671.79C157.493 670.25 159.369 669.48 161.749 669.48C163.625 669.48 165.123 669.97 166.243 670.95C167.363 671.93 167.923 673.26 167.923 674.94L167.209 674.31H167.923V669.9H171.661V693.84C171.661 695.912 171.017 697.55 169.729 698.754C168.469 699.958 166.705 700.56 164.437 700.56H157.129ZM162.883 688.254C164.451 688.254 165.683 687.764 166.579 686.784C167.475 685.804 167.923 684.446 167.923 682.71V678.3C167.923 676.564 167.475 675.206 166.579 674.226C165.683 673.246 164.451 672.756 162.883 672.756C161.287 672.756 160.041 673.232 159.145 674.184C158.277 675.136 157.843 676.508 157.843 678.3V682.71C157.843 684.502 158.277 685.874 159.145 686.826C160.041 687.778 161.287 688.254 162.883 688.254Z" fill="#6D6D6D"/>
<line x1="100" y1="581" x2="700" y2="581" stroke="#E0E0E0" stroke-width="4"/>
<path d="M103.864 493V462.34H111.802C113.79 462.34 115.498 462.718 116.926 463.474C118.382 464.23 119.502 465.294 120.286 466.666C121.098 468.038 121.504 469.662 121.504 471.538V483.76C121.504 485.636 121.098 487.274 120.286 488.674C119.502 490.046 118.382 491.11 116.926 491.866C115.498 492.622 113.79 493 111.802 493H103.864ZM107.644 489.64H111.802C113.65 489.64 115.092 489.122 116.128 488.086C117.192 487.05 117.724 485.608 117.724 483.76V471.538C117.724 469.718 117.192 468.29 116.128 467.254C115.092 466.218 113.65 465.7 111.802 465.7H107.644V489.64ZM135.768 493.42C133.332 493.42 131.414 492.804 130.014 491.572C128.614 490.312 127.914 488.618 127.914 486.49C127.914 484.334 128.614 482.64 130.014 481.408C131.414 480.176 133.304 479.56 135.684 479.56H142.824V477.25C142.824 475.822 142.39 474.73 141.522 473.974C140.682 473.19 139.478 472.798 137.91 472.798C136.538 472.798 135.39 473.092 134.466 473.68C133.542 474.24 133.01 475.01 132.87 475.99H129.09C129.342 474.002 130.28 472.42 131.904 471.244C133.528 470.068 135.558 469.48 137.994 469.48C140.654 469.48 142.754 470.166 144.294 471.538C145.834 472.91 146.604 474.772 146.604 477.124V493H142.908V488.59H142.278L142.908 487.96C142.908 489.64 142.25 490.97 140.934 491.95C139.646 492.93 137.924 493.42 135.768 493.42ZM136.692 490.438C138.484 490.438 139.954 489.99 141.102 489.094C142.25 488.198 142.824 487.05 142.824 485.65V482.374H135.768C134.508 482.374 133.514 482.724 132.786 483.424C132.058 484.124 131.694 485.076 131.694 486.28C131.694 487.568 132.128 488.59 132.996 489.346C133.892 490.074 135.124 490.438 136.692 490.438ZM165.487 493C163.499 493 161.945 492.468 160.825 491.404C159.733 490.34 159.187 488.842 159.187 486.91V473.344H152.677V469.9H159.187V463.39H162.967V469.9H172.207V473.344H162.967V486.91C162.967 488.674 163.807 489.556 165.487 489.556H171.787V493H165.487ZM188.151 493.42C186.331 493.42 184.735 493.056 183.363 492.328C182.019 491.6 180.969 490.578 180.213 489.262C179.485 487.918 179.121 486.364 179.121 484.6V478.3C179.121 476.508 179.485 474.954 180.213 473.638C180.969 472.322 182.019 471.3 183.363 470.572C184.735 469.844 186.331 469.48 188.151 469.48C189.971 469.48 191.553 469.844 192.897 470.572C194.269 471.3 195.319 472.322 196.047 473.638C196.803 474.954 197.181 476.508 197.181 478.3V482.374H182.817V484.6C182.817 486.42 183.279 487.82 184.203 488.8C185.127 489.752 186.443 490.228 188.151 490.228C189.607 490.228 190.783 489.976 191.679 489.472C192.575 488.94 193.121 488.156 193.317 487.12H197.097C196.845 489.052 195.893 490.592 194.241 491.74C192.617 492.86 190.587 493.42 188.151 493.42ZM193.485 479.854V478.3C193.485 476.48 193.023 475.08 192.099 474.1C191.203 473.12 189.887 472.63 188.151 472.63C186.443 472.63 185.127 473.12 184.203 474.1C183.279 475.08 182.817 476.48 182.817 478.3V479.518H193.779L193.485 479.854Z" fill="#6D6D6D"/>
<line x1="100" y1="381" x2="700" y2="381" stroke="#E0E0E0" stroke-width="4"/>
<path d="M103.78 293V262.34H108.82L118.186 288.59C118.13 287.89 118.06 287.036 117.976 286.028C117.92 284.992 117.864 283.914 117.808 282.794C117.78 281.646 117.766 280.568 117.766 279.56V262.34H121.42V293H116.38L107.056 266.75C107.112 267.422 107.168 268.276 107.224 269.312C107.28 270.32 107.322 271.398 107.35 272.546C107.406 273.666 107.434 274.744 107.434 275.78V293H103.78ZM135.768 293.42C133.332 293.42 131.414 292.804 130.014 291.572C128.614 290.312 127.914 288.618 127.914 286.49C127.914 284.334 128.614 282.64 130.014 281.408C131.414 280.176 133.304 279.56 135.684 279.56H142.824V277.25C142.824 275.822 142.39 274.73 141.522 273.974C140.682 273.19 139.478 272.798 137.91 272.798C136.538 272.798 135.39 273.092 134.466 273.68C133.542 274.24 133.01 275.01 132.87 275.99H129.09C129.342 274.002 130.28 272.42 131.904 271.244C133.528 270.068 135.558 269.48 137.994 269.48C140.654 269.48 142.754 270.166 144.294 271.538C145.834 272.91 146.604 274.772 146.604 277.124V293H142.908V288.59H142.278L142.908 287.96C142.908 289.64 142.25 290.97 140.934 291.95C139.646 292.93 137.924 293.42 135.768 293.42ZM136.692 290.438C138.484 290.438 139.954 289.99 141.102 289.094C142.25 288.198 142.824 287.05 142.824 285.65V282.374H135.768C134.508 282.374 133.514 282.724 132.786 283.424C132.058 284.124 131.694 285.076 131.694 286.28C131.694 287.568 132.128 288.59 132.996 289.346C133.892 290.074 135.124 290.438 136.692 290.438ZM153.139 293V269.9H156.457V272.672H157.213L156.625 273.68C156.625 272.392 156.961 271.37 157.633 270.614C158.333 269.858 159.271 269.48 160.447 269.48C161.735 269.48 162.729 269.956 163.429 270.908C164.129 271.86 164.479 273.204 164.479 274.94L163.345 272.672H165.109L164.311 273.68C164.311 272.392 164.661 271.37 165.361 270.614C166.089 269.858 167.041 269.48 168.217 269.48C169.673 269.48 170.793 270.026 171.577 271.118C172.389 272.21 172.795 273.652 172.795 275.444V293H169.309V275.402C169.309 274.45 169.099 273.708 168.679 273.176C168.287 272.644 167.699 272.378 166.915 272.378C166.159 272.378 165.557 272.644 165.109 273.176C164.689 273.68 164.479 274.408 164.479 275.36V293H161.455V275.402C161.455 274.422 161.231 273.68 160.783 273.176C160.363 272.644 159.761 272.378 158.977 272.378C158.193 272.378 157.605 272.644 157.213 273.176C156.821 273.68 156.625 274.408 156.625 275.36V293H153.139ZM188.151 293.42C186.331 293.42 184.735 293.056 183.363 292.328C182.019 291.6 180.969 290.578 180.213 289.262C179.485 287.918 179.121 286.364 179.121 284.6V278.3C179.121 276.508 179.485 274.954 180.213 273.638C180.969 272.322 182.019 271.3 183.363 270.572C184.735 269.844 186.331 269.48 188.151 269.48C189.971 269.48 191.553 269.844 192.897 270.572C194.269 271.3 195.319 272.322 196.047 273.638C196.803 274.954 197.181 276.508 197.181 278.3V282.374H182.817V284.6C182.817 286.42 183.279 287.82 184.203 288.8C185.127 289.752 186.443 290.228 188.151 290.228C189.607 290.228 190.783 289.976 191.679 289.472C192.575 288.94 193.121 288.156 193.317 287.12H197.097C196.845 289.052 195.893 290.592 194.241 291.74C192.617 292.86 190.587 293.42 188.151 293.42ZM193.485 279.854V278.3C193.485 276.48 193.023 275.08 192.099 274.1C191.203 273.12 189.887 272.63 188.151 272.63C186.443 272.63 185.127 273.12 184.203 274.1C183.279 275.08 182.817 276.48 182.817 278.3V279.518H193.779L193.485 279.854Z" fill="#6D6D6D"/>
</svg>
